<?xml version="1.0" encoding="UTF-8"?>
<svg id="Layer_1" xmlns="http://www.w3.org/2000/svg" version="1.1" viewBox="0 0 590 165">
  <!-- Generator: Adobe Illustrator 29.8.2, SVG Export Plug-In . SVG Version: 2.1.1 Build 3)  -->
  <defs>
    <style>
      .st0 {
        fill: #231f20;
      }

      .st1 {
        fill: #d1d3d4;
      }

      .st2 {
        fill: #00689e;
      }
    </style>
  </defs>
  <path class="st2" d="M21.15,115.38v-54.75h5.88c4.7,0,8.28,1.38,10.75,4.14,2.47,2.76,3.7,6.44,3.7,11.03,0,5.2-1.89,9.11-5.68,11.73,2.94,2.08,5.43,7.62,7.48,16.61l2.52,11.25h-7.38l-2.12-9.45c-1.51-6.62-2.83-10.83-3.95-12.63-1.12-1.8-2.51-2.61-4.16-2.42v24.5h-7.04ZM28.2,84.32h.32c3.95,0,5.92-2.76,5.92-8.29,0-5.87-2.08-8.82-6.24-8.85v17.13Z"/>
  <path class="st2" d="M109.47,115.38v-54.75h7.04v54.75h-7.04ZM126.54,115.38l-9.79-27.78,7.72-26.98h7.21l-8.62,26.06,10.75,28.7h-7.27Z"/>
  <path class="st0" d="M222.33,85.96v26.9c-3.31,2.16-6.54,3.24-9.69,3.24-5.55,0-9.94-2.47-13.17-7.41-3.23-4.94-4.84-11.81-4.84-20.61s1.56-15.54,4.68-20.59c3.12-5.06,7.3-7.58,12.53-7.58,3.15,0,6.64,1.31,10.49,3.92v7.52c-3.92-3.58-7.31-5.36-10.17-5.36-6.99,0-10.49,7.35-10.49,22.05s3.71,21.49,11.13,21.49c.61,0,1.44-.09,2.48-.28v-16.73h-4.84v-6.56h11.89Z"/>
  <path class="st0" d="M278.07,115.54v-54.75h5.88c4.7,0,8.28,1.38,10.75,4.14s3.7,6.44,3.7,11.03c0,5.2-1.89,9.11-5.68,11.73,2.94,2.08,5.43,7.62,7.48,16.61l2.52,11.25h-7.38l-2.12-9.45c-1.51-6.62-2.83-10.83-3.95-12.63-1.12-1.8-2.51-2.61-4.16-2.42v24.5h-7.04ZM285.12,84.48h.32c3.95,0,5.92-2.76,5.92-8.29,0-5.87-2.08-8.82-6.24-8.85v17.13Z"/>
  <path class="st0" d="M378.04,116.1c-4.32,0-7.84-2.5-10.57-7.5s-4.08-11.87-4.08-20.59c0-8.25,1.29-14.99,3.86-20.23,2.58-5.24,6.17-7.86,10.79-7.86s8.05,2.62,10.71,7.84c2.65,5.23,3.98,11.98,3.98,20.25,0,8.81-1.4,15.69-4.2,20.65-2.8,4.96-6.3,7.45-10.49,7.45ZM377.96,66.47c-2.32,0-4.1,1.91-5.34,5.73-1.24,3.82-1.86,9.09-1.86,15.8s.64,12.28,1.92,15.98c1.28,3.7,3.09,5.55,5.44,5.55s4.01-1.89,5.3-5.67,1.94-9.07,1.94-15.86-.65-12.21-1.96-15.94c-1.31-3.73-3.12-5.59-5.44-5.59Z"/>
  <path class="st0" d="M454.88,60.62h7.04v41.11c0,5.2,1.72,7.8,5.16,7.8,1.52,0,2.76-.65,3.72-1.96.96-1.31,1.44-3.15,1.44-5.52v-41.43h7.04v40.67c0,4.8-1.21,8.47-3.64,11.01-2.43,2.54-5.28,3.8-8.57,3.8-3.5,0-6.4-1.32-8.73-3.96s-3.48-6.07-3.48-10.29v-41.23Z"/>
  <path class="st0" d="M543.75,115.38v-54.75h7.45c5.04,0,9.05,1.35,12.03,4.04,2.97,2.7,4.46,6.4,4.46,11.13s-1.38,8.63-4.12,11.41c-2.75,2.78-6.51,4.16-11.29,4.16h-1.48v24.02h-7.04ZM550.8,84.8h1.24c5.74,0,8.61-3.13,8.61-9.41,0-5.63-3.28-8.37-9.85-8.21v17.61Z"/>
  <rect class="st1" x="73.77" y="36.61" width="3.87" height="102.79"/>
  <rect class="st1" x="157.64" y="36.61" width="3.87" height="102.79"/>
  <rect class="st1" x="245.45" y="36.61" width="3.87" height="102.79"/>
  <rect class="st1" x="329.99" y="36.61" width="3.87" height="102.79"/>
  <rect class="st1" x="418.93" y="36.61" width="3.87" height="102.79"/>
  <rect class="st1" x="498.7" y="36.61" width="3.87" height="102.79"/>
</svg>